<svg width="38" height="38" viewBox="0 0 38 38" fill="none" xmlns="http://www.w3.org/2000/svg">
    <path d="M27.4444 14.7778H23.2222V8.44444H14.7778V14.7778H10.5556L19 23.2222L27.4444 14.7778ZM33.7778 25.3333H25.3333C25.3333 27.013 24.6661 28.6239 23.4783 29.8117C22.2906 30.9994 20.6797 31.6667 19 31.6667C17.3203 31.6667 15.7094 30.9994 14.5217 29.8117C13.3339 28.6239 12.6667 27.013 12.6667 25.3333H4.22222V4.22222H33.7778V25.3333ZM33.7778 0H4.22222C1.87889 0 0 1.9 0 4.22222V33.7778C0 34.8976 0.44484 35.9715 1.23666 36.7633C2.02848 37.5552 3.10242 38 4.22222 38H33.7778C34.8976 38 35.9715 37.5552 36.7633 36.7633C37.5552 35.9715 38 34.8976 38 33.7778V4.22222C38 3.10242 37.5552 2.02848 36.7633 1.23666C35.9715 0.44484 34.8976 0 33.7778 0Z"
          fill="#D8DCF0"/>
</svg>
