<svg width="185" height="147" viewBox="0 0 185 147" fill="none" xmlns="http://www.w3.org/2000/svg">
    <path fill-rule="evenodd" clip-rule="evenodd"
          d="M15.014 123.95H121.87V131.042H15.014V123.95ZM106.859 100.898C88.7898 100.898 89.6915 75.1855 105.975 75.1855C122.971 75.1855 122.379 100.898 106.859 100.898ZM0 70.7547V139.021C0 142.679 2.96818 147 6.18208 147H128.936C133.208 147 136 144.197 136 139.909V68.0942C136 62.8106 132.436 61 127.168 61H7.94784C2.52592 61 0 65.2217 0 70.7547Z"
          fill="#D8DCF0"/>
    <path fill-rule="evenodd" clip-rule="evenodd"
          d="M64.4046 12.3583C69.2535 12.4675 73.9911 14.6419 77.7999 15.7019L132.393 31.5925C137.123 32.9206 141.645 33.9484 146.189 35.4181C150.198 36.714 155.731 38.4743 159.681 39.5467L173.593 43.2531C173.007 45.7803 171.957 49.0969 170.951 51.1971L144.426 43.3622C139.741 41.9074 135.877 40.7805 130.828 39.3407L62.6465 19.4209C62.9114 16.2308 63.7434 15.2132 64.4046 12.3583ZM52.9586 52.0811C53.1641 49.6134 56.4356 39.0078 57.3618 37.0739C61.4182 37.1633 79.8305 42.7194 84.5506 44.2437C88.8572 45.6363 93.2751 46.8228 98.1735 48.2428C114.941 53.0986 151.189 64.3819 166.548 67.9692C165.216 70.7521 164.753 73.5672 163.915 76.8044C163.017 80.2775 162.115 82.5714 161.08 86.32C159.909 90.5452 156.083 100.498 155.981 105.043C151.583 104.944 149.815 103.375 145.417 103.278C145.417 116.661 144.634 113.781 150.771 115.564C167.888 120.534 163.378 113.422 173.703 81.3176C175.775 74.8729 177.318 68.5651 179.435 61.4676C188.94 29.597 190.347 37.8437 150.018 25.3988L125.518 18.1796C115.848 15.7666 65.4374 0 60.8832 0C58.3622 0 56.4454 2.53219 55.5514 4.36429L43.5953 44.4745C40.2694 54.3301 41.5793 52.0811 52.9586 52.0811Z"
          fill="#D8DCF0"/>
</svg>
