<svg width="25" height="17" viewBox="0 0 25 17" fill="none" xmlns="http://www.w3.org/2000/svg">
    <path d="M20.2094 5.23852L22.3111 5.19705L22.3091 7.39522L24.4782 7.41063L24.5352 9.635L22.395 9.68314L22.1489 11.788L20.2106 11.7635L20.0293 9.63585L17.9402 9.60366L18.0315 7.42672L20.1787 7.43262L20.2094 5.23852Z"
          fill="white"/>
    <path d="M15.2937 7.56207C17.3047 15.0955 6.14058 20.1407 1.33552 12.0178C-2.5733 5.41012 6.40278 -3.15293 13.2079 2.80904C12.6413 3.49483 11.7664 4.20929 11.0973 4.81384C9.49904 3.33672 7.44718 3.30867 5.45725 4.58354C3.68467 5.71922 2.95037 8.05051 3.74583 10.1467C5.32106 14.2977 11.303 14.5163 12.4041 10.0828L8.07948 10.062L8.16393 7.40273L15.2937 7.56207Z"
          fill="white"/>
</svg>
