<svg width="12" height="15" viewBox="0 0 12 15" fill="none" xmlns="http://www.w3.org/2000/svg">
    <path fill-rule="evenodd" clip-rule="evenodd"
          d="M6.40213 10.9148V12.5739C6.17119 12.7255 6.29967 12.7654 5.94654 12.7654C5.51845 12.7654 5.68613 11.419 5.68613 10.9787C5.43331 10.8475 5.2914 10.8231 5.08061 10.6151C4.26104 9.80666 4.78727 8.32355 6.0776 8.32907C7.76266 8.33629 7.73774 10.8059 6.40213 10.9148ZM3.2777 4.40607C3.2777 2.75548 5.95954 0.81957 8.01397 2.82597C8.94446 3.73502 8.81057 4.69481 8.81057 6.00127H3.2777V4.40607ZM1.19488 4.59757V6.00127C-0.265948 6.03333 0.0232696 7.42703 0.0232696 8.93666C0.0232696 10.0727 0.127484 9.65995 0.0265277 10.8543C-0.0172344 11.3734 0.0614002 12.2427 0.0895639 12.7021C0.115128 13.1216 -0.315553 14.7599 0.855191 14.9489C1.41435 15.0389 1.34827 14.9877 1.7404 14.9631C2.11541 14.9395 1.72783 14.9987 2.04109 14.9987C2.36151 14.9987 2.10479 14.9376 2.41697 14.9552L10.9586 14.9987C11.6122 14.9987 12 14.5166 12 13.9139V7.14999C12 6.40271 11.6514 6.01783 10.8936 6.00127C10.8936 4.72134 10.8836 3.40362 10.2168 2.32558C8.12554 -1.05479 3.17674 -0.594531 1.66825 2.7005C1.40893 3.26754 1.19488 3.79276 1.19488 4.59757Z"
          fill="#A09DC0"/>
</svg>
