<svg width="15" height="11" viewBox="0 0 15 11" fill="none" xmlns="http://www.w3.org/2000/svg">
    <path fill-rule="evenodd" clip-rule="evenodd"
          d="M7.44809 6.62534C7.87964 6.55341 8.16006 6.09475 8.40691 5.85789L12.9319 1.50495C14.3592 0.131675 14.802 0 13.4777 0H1.52069C0.231244 0 0.62198 0.11985 2.01496 1.45559C2.85756 2.26359 7.15452 6.49829 7.44809 6.62534Z"
          fill="#A09DC0"/>
    <path fill-rule="evenodd" clip-rule="evenodd"
          d="M5.61666 6.15054C5.26929 6.3544 1.02132 10.4001 0.814507 10.8766C1.68717 11.0411 13.3112 11.0411 14.1839 10.8766C13.9446 10.3251 12.2946 8.89463 11.8163 8.43377C11.2884 7.92513 9.87825 6.44196 9.38172 6.15054C7.50076 7.90467 7.50006 7.90695 5.61666 6.15054Z"
          fill="#A09DC0"/>
    <path fill-rule="evenodd" clip-rule="evenodd"
          d="M0.105401 10.212C0.77059 9.93753 4.01447 6.31345 5.02387 5.65307C4.74492 5.16298 3.06796 3.70578 2.56601 3.2084C1.96082 2.60872 0.810367 1.10555 0.0628472 0.796173C-0.010155 2.39961 -0.0458755 8.84945 0.105401 10.212Z"
          fill="#A09DC0"/>
    <path fill-rule="evenodd" clip-rule="evenodd"
          d="M14.934 0.796426C14.5559 0.957563 14.5038 1.07987 14.2157 1.36213L9.98463 5.64187C10.5607 6.00975 11.8447 7.37086 12.4304 7.93503C12.8799 8.36804 14.4565 10.031 14.893 10.212C15.0425 9.42929 15.0149 1.88583 14.934 0.796426Z"
          fill="#A09DC0"/>
</svg>
