<svg xmlns="http://www.w3.org/2000/svg" width="120" height="75" viewBox="0 0 120 75" id="mastercard-" y="1637">
    <defs>
        <path d="M115.071.429a4.5 4.5 0 0 1 4.5 4.5V70.07a4.5 4.5 0 0 1-4.5 4.5H4.93a4.5 4.5 0 0 1-4.5-4.5V4.93a4.5 4.5 0 0 1 4.5-4.5H115.07zm0-.429H4.93C2.229 0 0 2.229 0 4.929V70.07C0 72.771 2.229 75 4.929 75H115.07c2.7 0 4.929-2.229 4.929-4.929V4.93c0-2.7-2.229-4.929-4.929-4.929z"
              id="bba"/>
    </defs>
    <g fill="none" fill-rule="evenodd">
        <path d="M5.143 75a4.7 4.7 0 0 1-4.714-4.714V5.143A4.7 4.7 0 0 1 5.143.429h110.143A4.7 4.7 0 0 1 120 5.143v65.143A4.7 4.7 0 0 1 115.286 75H5.143z"
              fill="#FFF"/>
        <g>
            <use fill="#FFF" xmlns:xlink="http://www.w3.org/1999/xlink" xlink:href="#bba"/>
            <path stroke="#C8C8C8"
                  d="M115.071-.071a5 5 0 0 1 5 5V70.07a5 5 0 0 1-5 5H4.93a5 5 0 0 1-5-5V4.93a5 5 0 0 1 5-5H115.07zm0 .571H4.93C2.505.5.5 2.505.5 4.929V70.07c0 2.424 2.005 4.429 4.429 4.429H115.07c2.424 0 4.429-2.005 4.429-4.429V4.93c0-2.424-2.005-4.429-4.429-4.429z"/>
        </g>
        <path d="M39.665 63.137c0-1.057.693-1.927 1.826-1.927 1.084 0 1.815.831 1.815 1.927 0 1.097-.73 1.927-1.815 1.927-1.133 0-1.826-.869-1.826-1.927zm4.875 0v-3.01h-1.31v.73c-.415-.54-1.045-.881-1.902-.881-1.688 0-3.01 1.323-3.01 3.161 0 1.84 1.322 3.162 3.01 3.162.857 0 1.487-.34 1.902-.882v.731h1.31v-3.01zm44.238 0c0-1.057.692-1.927 1.826-1.927 1.084 0 1.813.831 1.813 1.927 0 1.097-.73 1.927-1.813 1.927-1.134 0-1.826-.869-1.826-1.927zm4.874 0V57.71h-1.31v3.149c-.415-.542-1.045-.882-1.902-.882-1.688 0-3.01 1.323-3.01 3.161 0 1.84 1.322 3.162 3.01 3.162.857 0 1.487-.34 1.902-.882v.731h1.31v-3.01zm-32.862-1.99c.843 0 1.385.53 1.524 1.462H59.19c.138-.87.667-1.462 1.6-1.462zm.025-1.171c-1.764 0-2.999 1.284-2.999 3.161 0 1.915 1.285 3.162 3.087 3.162.907 0 1.737-.227 2.468-.844l-.642-.97a2.87 2.87 0 0 1-1.751.63c-.844 0-1.613-.39-1.801-1.474h4.471c.013-.163.025-.328.025-.504-.012-1.877-1.171-3.161-2.858-3.161zm15.807 3.161c0-1.057.693-1.927 1.827-1.927 1.083 0 1.814.831 1.814 1.927 0 1.097-.731 1.927-1.814 1.927-1.134 0-1.827-.869-1.827-1.927zm4.875 0v-3.01h-1.31v.73c-.416-.54-1.046-.881-1.902-.881-1.688 0-3.01 1.323-3.01 3.161 0 1.84 1.322 3.162 3.01 3.162.856 0 1.486-.34 1.903-.882v.731h1.31v-3.01zm-12.269 0c0 1.827 1.273 3.162 3.212 3.162.907 0 1.512-.201 2.167-.718l-.63-1.058c-.491.353-1.008.541-1.574.541-1.046-.012-1.814-.768-1.814-1.927 0-1.158.768-1.914 1.814-1.927.566 0 1.083.189 1.574.542l.63-1.058c-.655-.516-1.26-.718-2.167-.718-1.939 0-3.212 1.335-3.212 3.161zm16.879-3.161c-.756 0-1.246.353-1.587.882v-.731h-1.297v6.021h1.31v-3.376c0-.995.428-1.549 1.284-1.549.265 0 .543.037.82.15l.403-1.234a2.794 2.794 0 0 0-.933-.163zm-35.092.63c-.63-.416-1.5-.63-2.456-.63-1.525 0-2.507.73-2.507 1.927 0 .982.73 1.587 2.078 1.776l.617.088c.718.101 1.058.29 1.058.63 0 .466-.478.73-1.372.73-.908 0-1.563-.289-2.003-.629l-.617 1.02c.717.529 1.625.78 2.606.78 1.739 0 2.746-.817 2.746-1.963 0-1.06-.793-1.613-2.102-1.802l-.618-.088c-.567-.076-1.02-.19-1.02-.592 0-.442.428-.706 1.146-.706.769 0 1.512.29 1.877.516l.567-1.057zm16.89-.63c-.755 0-1.246.353-1.586.882v-.731h-1.298v6.021h1.31v-3.376c0-.995.429-1.549 1.285-1.549.265 0 .542.037.819.15l.403-1.234a2.793 2.793 0 0 0-.932-.163zm-11.172.15H54.59v-1.825H53.27v1.826h-1.222v1.197h1.222v2.746c0 1.398.542 2.229 2.09 2.229.568 0 1.223-.176 1.638-.465l-.377-1.122c-.391.226-.819.34-1.16.34-.654 0-.869-.403-.869-1.008v-2.72h2.142v-1.197zm-19.574 6.022v-3.779c0-1.423-.907-2.38-2.369-2.393-.768-.013-1.561.227-2.115 1.071-.416-.668-1.071-1.071-1.99-1.071-.643 0-1.272.19-1.764.894v-.743h-1.31v6.021h1.323V62.81c0-1.046.579-1.6 1.473-1.6.87 0 1.31.567 1.31 1.587v3.351h1.323V62.81c0-1.046.604-1.6 1.474-1.6.894 0 1.323.567 1.323 1.587v3.351h1.322z"
              fill="#020303"/>
        <path fill="#F06022" d="M50.58 49.897H70.42V14.241H50.58z"/>
        <path d="M51.839 32.07c0-7.234 3.387-13.677 8.66-17.829a22.576 22.576 0 0 0-14.013-4.848c-12.523 0-22.674 10.152-22.674 22.676s10.151 22.676 22.674 22.676c5.29 0 10.157-1.811 14.014-4.848-5.274-4.152-8.661-10.594-8.661-17.828"
              fill="#E81D25"/>
        <path d="M97.188 32.07c0 12.523-10.152 22.675-22.674 22.675A22.579 22.579 0 0 1 60.5 49.897c5.274-4.152 8.661-10.594 8.661-17.828 0-7.233-3.387-13.676-8.661-17.828a22.579 22.579 0 0 1 14.014-4.848c12.522 0 22.674 10.152 22.674 22.676"
              fill="#F59E1E"/>
    </g>
</svg>