<svg width="82" height="24" viewBox="0 0 82 24" fill="none" xmlns="http://www.w3.org/2000/svg">
    <path d="M0 22.1609C0 14.0568 0 8.10484 0 0.00078259C1.84354 -0.0281663 3.95949 0.743997 4.12015 2.65497V8.07367C5.29036 7.11731 6.71162 6.6393 8.38358 6.6393C10.748 6.6393 12.6111 7.42384 13.9725 8.99327C15.3577 10.5134 16.0505 12.5365 16.0505 15.0622C16.0505 17.7839 15.2145 19.954 13.5426 21.5724C11.8945 23.1908 9.66135 24 6.84294 24C5.60088 24 4.35301 23.8283 3.09912 23.4851C1.84512 23.1418 0.812162 22.7003 0 22.1609ZM7.41622 10.6116C6.10252 10.6116 5.00383 11.1388 4.12015 12.1933V19.2184C5.00383 19.7824 5.98313 20.0645 7.05783 20.0645C8.41928 20.0645 9.52388 19.6413 10.3719 18.7955C11.2197 17.9495 11.6437 16.8032 11.6437 15.3564C11.6437 13.8607 11.2496 12.6959 10.4615 11.8621C9.67329 11.0284 8.65817 10.6116 7.41622 10.6116ZM39.4095 17.3058C39.4095 10.7311 39.4095 6.64654 39.4095 0.071869C41.1212 0.0139712 43.4159 0.670232 43.5296 2.58121V6.54195C45.2612 6.54195 44.4358 6.54195 46.1674 6.54195C48.2732 6.76572 48.7245 9.19019 48.7245 10.5143H43.5296V17.0483C43.5296 19.0344 44.1744 20.0276 45.4642 20.0276C48.4907 20.0276 48.6729 21.6073 49.1902 22.3448C47.8765 23.4237 46.2882 23.9632 44.4252 23.9632C42.6816 23.9632 41.4098 23.4176 40.6097 22.3264C39.8096 21.2353 39.4095 19.5617 39.4095 17.3058ZM21.0304 21.5724C19.43 19.9295 18.6299 17.8453 18.6299 15.3197C18.6299 12.794 19.43 10.7219 21.0304 9.10358C22.6306 7.46073 24.7563 6.6393 27.4076 6.6393C30.0347 6.6393 32.1485 7.46073 33.7489 9.10358C35.3731 10.7219 36.1851 12.794 36.1851 15.3197C36.1851 17.8207 35.3731 19.905 33.7489 21.5724C32.1248 23.1908 30.011 24 27.4076 24C24.7563 24 22.6306 23.1908 21.0304 21.5724ZM24.2906 11.9358C23.4547 12.8184 23.0366 13.9464 23.0366 15.3197C23.0366 16.6927 23.4487 17.8269 24.2728 18.7218C25.0966 19.6169 26.1416 20.0645 27.4076 20.0645C28.6973 20.0645 29.7541 19.623 30.5782 18.7403C31.4022 17.8575 31.8143 16.7174 31.8143 15.3197C31.8143 13.9464 31.3962 12.8184 30.5603 11.9358C29.7243 11.053 28.6734 10.6116 27.4076 10.6116C26.1656 10.6116 25.1265 11.053 24.2906 11.9358Z"
          fill="#D8DCF0"/>
    <path d="M52.1279 17.3057C52.1279 10.7311 52.1279 6.64646 52.1279 0.0717882C53.8586 -0.0632678 56.1909 0.76657 56.2481 2.58113V6.54187C57.9796 6.54187 57.1543 6.54187 58.8858 6.54187C61.1233 6.7849 61.4429 9.19011 61.4429 10.5142H56.2481V17.0482C56.2481 19.0344 56.8929 20.0275 58.1827 20.0275C61.2092 20.0275 61.3727 21.6457 61.9087 22.3447C60.595 23.4236 59.0067 23.9632 57.1437 23.9632C55.4001 23.9632 54.1283 23.4176 53.3281 22.3264C52.528 21.2352 52.1279 19.5616 52.1279 17.3057ZM66.1363 21.5723C64.5359 19.9295 63.7358 17.8452 63.7358 15.3196C63.7358 12.7939 64.5359 10.7218 66.1363 9.1035C67.7365 7.46065 69.8621 6.63922 72.5134 6.63922C75.1406 6.63922 77.2545 7.46065 78.8548 9.1035C80.4789 10.7218 81.2909 12.7939 81.2909 15.3196C81.2909 17.8206 80.4789 19.9049 78.8548 21.5723C77.2306 23.1908 75.1168 23.9999 72.5134 23.9999C69.8621 23.9999 67.7365 23.1908 66.1363 21.5723ZM69.3964 11.9357C68.5605 12.8183 68.1425 13.9464 68.1425 15.3196C68.1425 16.6927 68.5546 17.8268 69.3786 18.7218C70.2025 19.6169 71.2475 20.0644 72.5134 20.0644C73.8031 20.0644 74.8601 19.6229 75.684 18.7402C76.508 17.8574 76.9201 16.7173 76.9201 15.3196C76.9201 13.9464 76.5021 12.8183 75.6661 11.9357C74.8301 11.0529 73.7792 10.6115 72.5134 10.6115C71.2714 10.6115 70.2324 11.0529 69.3964 11.9357Z"
          fill="#D8DCF0"/>
</svg>
