<svg width="20" height="20" viewBox="0 0 20 20" fill="none" xmlns="http://www.w3.org/2000/svg">
    <path d="M10.5 13.5V15H9V13.5H10.5ZM8.5 8.5H7V8C7 6.34 8.34 5 10 5C11.66 5 13 6.34 13 8C13 8.97 12.5 9.88 11.71 10.41L11.41 10.6C10.84 11 10.5 11.62 10.5 12.3V12.5H9V12.3C9 11.11 9.6 10 10.59 9.35L10.88 9.16C11.27 8.9 11.5 8.47 11.5 8C11.5 7.18 10.83 6.5 10 6.5C9.17 6.5 8.5 7.17 8.5 8V8.5Z"
          fill="#D8DCF0"/>
    <path d="M10 0C4.47 0 0 4.5 0 10C0 12.6522 1.05357 15.1957 2.92893 17.0711C3.85752 17.9997 4.95991 18.7362 6.17317 19.2388C7.38642 19.7413 8.68678 20 10 20C12.6522 20 15.1957 18.9464 17.0711 17.0711C18.9464 15.1957 20 12.6522 20 10C20 8.68678 19.7413 7.38642 19.2388 6.17317C18.7362 4.95991 17.9997 3.85752 17.0711 2.92893C16.1425 2.00035 15.0401 1.26375 13.8268 0.761205C12.6136 0.258658 11.3132 0 10 0ZM10 18C7.87827 18 5.84344 17.1571 4.34315 15.6569C2.84285 14.1566 2 12.1217 2 10C2 7.87827 2.84285 5.84344 4.34315 4.34315C5.84344 2.84285 7.87827 2 10 2C12.1217 2 14.1566 2.84285 15.6569 4.34315C17.1571 5.84344 18 7.87827 18 10C18 12.1217 17.1571 14.1566 15.6569 15.6569C14.1566 17.1571 12.1217 18 10 18Z"
          fill="#D8DCF0"/>
</svg>
