<svg width="132" height="140" viewBox="0 0 132 140" fill="none" xmlns="http://www.w3.org/2000/svg">
    <path d="M78.4826 106.667V93.3333L51.7239 116.667L78.4826 140V126.667H98.5516V106.667H78.4826ZM132 90L105.241 66.6667V80H85.1723V100H105.241V113.333L132 90ZM129.726 44.8667L116.346 21.8C115.543 20.3333 113.804 19.7333 112.265 20.3333L95.6082 27C92.1964 24.2667 88.5171 22.0667 84.3026 20.3333L81.8274 2.8C81.5598 1.2 80.155 0 78.4826 0H51.7239C50.0515 0 48.6466 1.2 48.379 2.8L45.9039 20.4667C41.6894 22.2 38.077 24.4 34.5983 27.1333L18.2755 20.3333C16.7369 19.7333 14.9307 20.3333 14.1948 21.8L0.815454 44.8667C-0.0542038 46.2667 0.280279 48.1333 1.55132 49.1333L15.3989 60C15.1314 62.2 14.9307 64.4667 14.9307 66.6667C14.9307 68.8667 15.1314 71.1333 15.3989 73.3333L1.28373 84.2C-0.0542042 85.2 -0.388689 87.0667 0.480969 88.4667L13.8603 111.533C14.5962 113.333 16.5362 114.067 18.2755 113.333L34.9997 106.667C36.6052 107.933 38.3445 109.133 40.0839 110.2L63.5646 90.2C50.6535 89.3333 40.8866 78.2 41.6894 65.3333C42.6928 52.4667 53.8646 42.7333 66.7757 43.6667C76.4088 44.2667 84.6371 50.8 87.5137 60H114.808L128.923 49.1333C130.194 48.1333 130.528 46.2667 129.726 44.8667Z"
          fill="#D8DCF0"/>
</svg>
