<svg width="15" height="18" viewBox="0 0 15 18" fill="none" xmlns="http://www.w3.org/2000/svg">
    <path fill-rule="evenodd" clip-rule="evenodd"
          d="M12.2966 18C13.1425 18 15 16.5532 15 15.6788C15 15.1192 13.6602 13.4751 13.2051 12.9814L12.8578 12.5627C12.1871 11.5667 11.444 11.3292 10.4686 12.263C10.4522 12.2785 10.43 12.3022 10.4141 12.3177L9.48463 13.0259C8.09977 12.696 4.22656 7.90034 4.07691 6.06251C4.59034 5.92231 4.33575 5.8076 5.13783 5.26732C7.04828 3.97972 5.10467 2.69057 3.69335 0.706638C2.82436 -0.514746 2.09438 0.0873972 1.33945 0.722181C1.00943 0.999472 0.430298 1.34267 0.223772 1.68213C-0.557014 2.966 0.875589 8.01412 1.90822 9.82615C2.62696 11.087 3.4117 12.3945 4.42639 13.4424C5.94568 15.0117 7.29008 15.9337 9.23216 16.9316C9.81494 17.2309 11.5575 18 12.2966 18Z"
          fill="#A09DC0"/>
</svg>
