<svg width="37" height="36" viewBox="0 0 37 36" fill="none" xmlns="http://www.w3.org/2000/svg">
    <path fill-rule="evenodd" clip-rule="evenodd"
          d="M17.1822 23.6041C16.0572 24.4141 15.2752 25.9446 13.8956 26.2411C12.8863 25.0119 12.361 21.7574 11.7999 20.1353C10.2349 19.4566 7.78997 19.0909 6.56487 18.0924C6.80428 16.517 9.60091 16.1192 11.0071 15.518C12.6739 14.805 14.3805 14.1897 16.0678 13.5082C18.0062 12.7254 24.9535 9.64671 26.522 9.8646C26.9525 11.1478 25.4454 16.7307 25.1099 18.438C24.7405 20.3178 24.2278 25.947 22.972 26.9603C21.7366 27.5143 18.4507 24.3692 17.1822 23.6041ZM15.0153 0.238232C5.39885 1.79189 -1.55352 11.2668 0.300271 21.0607C2.13152 30.7351 10.92 37.3957 20.9294 35.7501C30.7708 34.132 37.354 25.0217 35.7822 15.0458C34.2347 5.22432 24.8894 -1.35706 15.0153 0.238232Z"
          fill="#D8DCF0"/>
    <path fill-rule="evenodd" clip-rule="evenodd"
          d="M11.7998 20.1342C12.3609 21.7562 12.8862 25.0108 13.8955 26.24C15.2751 25.9435 16.0571 24.413 17.1821 23.6029C16.8811 22.469 15.5159 22.1788 14.5625 21.2797C15.5056 19.6263 22.5262 14.6607 23.2012 13.127C21.6902 13.3832 13.7752 19.0356 11.7998 20.1342Z"
          fill="#EEF1FF"/>
</svg>
