<svg xmlns="http://www.w3.org/2000/svg" width="120" height="75" viewBox="0 0 120 75" id="visa-" y="2293">
    <defs>
        <path d="M115.071.429a4.5 4.5 0 0 1 4.5 4.5V70.07a4.5 4.5 0 0 1-4.5 4.5H4.93a4.5 4.5 0 0 1-4.5-4.5V4.93a4.5 4.5 0 0 1 4.5-4.5H115.07zm0-.429H4.93C2.229 0 0 2.229 0 4.929V70.07C0 72.771 2.229 75 4.929 75H115.07c2.7 0 4.929-2.229 4.929-4.929V4.93c0-2.7-2.229-4.929-4.929-4.929z"
              id="boa"/>
    </defs>
    <g fill="none" fill-rule="evenodd">
        <path d="M.214 70.071V4.93A4.7 4.7 0 0 1 4.93.214H115.07a4.7 4.7 0 0 1 4.715 4.715V70.07a4.7 4.7 0 0 1-4.715 4.715H4.93A4.7 4.7 0 0 1 .214 70.07z"
              fill="#FFF"/>
        <path fill="#0023A0"
              d="M43.586 52.714l4.885-30.343h7.843L51.43 52.714h-7.843M79.8 23.143c-1.543-.6-3.986-1.286-7.029-1.286-7.757 0-13.2 4.114-13.242 9.986-.043 4.371 3.9 6.771 6.857 8.228 3.043 1.5 4.071 2.443 4.071 3.772 0 2.014-2.443 2.957-4.671 2.957-3.129 0-4.8-.471-7.372-1.586l-.985-.471-1.115 6.771c1.843.857 5.229 1.586 8.7 1.629 8.229 0 13.586-4.072 13.629-10.372.043-3.471-2.057-6.085-6.557-8.228-2.743-1.414-4.415-2.357-4.415-3.772 0-1.242 1.415-2.614 4.5-2.614 2.572-.043 4.415.557 5.872 1.157l.686.343 1.071-6.514M99.857 22.414h-6.043c-1.885 0-3.3.557-4.114 2.529L78.086 52.714h8.228s1.329-3.728 1.629-4.543H97.97c.215 1.072.943 4.543.943 4.543h7.243l-6.3-30.3zm-9.643 19.543c.643-1.757 3.129-8.486 3.129-8.486-.043.086.643-1.757 1.028-2.871l.515 2.614s1.5 7.243 1.8 8.743h-6.472zM37.029 22.414l-7.672 20.657-.814-4.2C27.129 34.03 22.67 28.8 17.7 26.143l7.029 26.528H33l12.343-30.257h-8.314"/>
        <path d="M22.243 22.371h-12.6l-.086.643c9.814 2.529 16.329 8.572 19.029 15.857l-2.743-13.928c-.514-1.929-1.886-2.486-3.6-2.572z"
              fill="#FFA000"/>
        <path d="M108.729 49.071c.985 0 1.714.772 1.714 1.715a1.72 1.72 0 0 1-1.714 1.714 1.692 1.692 0 0 1-1.715-1.714 1.72 1.72 0 0 1 1.715-1.715zm0 3.215c.771 0 1.414-.643 1.414-1.457 0-.815-.6-1.458-1.414-1.458-.772 0-1.415.643-1.415 1.458.043.814.643 1.457 1.415 1.457zm-.6-2.357h.771c.171 0 .557.042.557.514 0 .128-.043.3-.3.386.214.042.214.257.257.428 0 .257 0 .3.086.429h-.343c-.043-.043-.043-.129-.043-.386 0-.171 0-.343-.385-.343h-.3v.729h-.3v-1.757zm.3.771h.385c.257 0 .3-.171.3-.257 0-.214-.128-.257-.343-.257h-.342v.514z"
              fill="#0023A0"/>
        <g>
            <use fill="#FFF" xmlns:xlink="http://www.w3.org/1999/xlink" xlink:href="#boa"/>
            <path stroke="#C8C8C8"
                  d="M115.071-.071a5 5 0 0 1 5 5V70.07a5 5 0 0 1-5 5H4.93a5 5 0 0 1-5-5V4.93a5 5 0 0 1 5-5H115.07zm0 .571H4.93C2.505.5.5 2.505.5 4.929V70.07c0 2.424 2.005 4.429 4.429 4.429H115.07c2.424 0 4.429-2.005 4.429-4.429V4.93c0-2.424-2.005-4.429-4.429-4.429z"/>
        </g>
    </g>
</svg>