<svg width="33" height="33" viewBox="0 0 33 33" fill="none" xmlns="http://www.w3.org/2000/svg">
    <path d="M9.11322 10.6479C10.0237 11.9352 11.4355 17.6996 13.6235 17.6892C14.0518 16.547 13.9087 15.0188 13.8611 13.7731C13.792 11.9603 12.8858 11.7624 13.1113 10.5454L17.7155 10.6559C18.2585 12.5189 17.7002 14.6609 17.9804 16.585C20.1304 17.1114 21.4819 11.979 22.7769 10.553L26.11 10.6759C26.8641 12.3067 23.7743 15.6957 22.9428 17.2708C23.6617 19.0889 27.1457 20.9874 26.6408 23.105C25.5193 23.4913 24.1521 23.4102 22.9801 23.2105C21.8839 22.0927 19.5993 19.1278 18.0396 19.6927C17.7045 20.9977 18.1921 21.8778 17.6443 23.0713C11.2222 25.2135 4.33006 13.1466 5.58988 10.5735L9.11322 10.6479Z"
          fill="white"/>
    <path fill-rule="evenodd" clip-rule="evenodd"
          d="M5.58987 10.5726C4.33006 13.1456 11.2222 25.2125 17.6443 23.0703C18.1921 21.8768 17.7045 20.9967 18.0396 19.6917C19.5993 19.1269 21.8839 22.0918 22.9801 23.2096C24.1521 23.4092 25.5193 23.4903 26.6408 23.1041C27.1457 20.9865 23.6617 19.0879 22.9428 17.2699C23.7743 15.6948 26.8641 12.3058 26.1099 10.6749L22.7769 10.5521C21.4819 11.978 20.1304 17.1105 17.9804 16.584C17.7002 14.6599 18.2585 12.5179 17.7155 10.655L13.1113 10.5444C12.8857 11.7614 13.792 11.9594 13.8611 13.7722C13.9087 15.0179 14.0518 16.546 13.6235 17.6882C11.4355 17.6987 10.0237 11.9342 9.11321 10.647L5.58987 10.5726Z"
          fill="#FFFFFD"/>
</svg>
