<svg width="36" height="36" viewBox="0 0 36 36" fill="none" xmlns="http://www.w3.org/2000/svg">
    <path fill-rule="evenodd" clip-rule="evenodd"
          d="M7.51456 28.4788C7.79206 27.0312 8.43786 25.5862 8.93354 24.1672C9.67217 22.0519 5.27732 16.8841 9.89969 11.3014C13.767 6.63049 20.6223 5.95017 25.2475 10.0878C29.8563 14.2105 29.6422 21.8924 24.8603 25.7034C18.6687 30.638 14.4491 26.3027 11.9196 27.1521C10.4661 27.6404 9.02515 28.2425 7.51456 28.4788ZM14.6458 0.322421C4.89521 2.16454 -1.60748 11.5178 0.347389 21.4264C2.24497 31.0455 11.9496 37.7666 21.7713 35.5415C31.1282 33.4219 37.5208 24.358 35.6851 14.6647C33.8306 4.87187 24.5182 -1.54245 14.6458 0.322421Z"
          fill="#D8DCF0"/>
    <path fill-rule="evenodd" clip-rule="evenodd"
          d="M23.5665 20.4341C23.1572 25.1072 17.7295 21.9906 15.7984 20.1295C11.7745 16.2517 12.3354 12.4827 15.5016 12.668C17.0246 14.7943 16.6947 15.1691 15.7099 16.9459C16.5694 18.4048 17.8086 19.8565 19.5999 20.4385L21.1164 18.9686L23.5665 20.4341ZM10.2497 25.7811C11.1893 25.6785 12.8429 24.8829 13.5984 25.0322C14.4953 25.2094 15.2628 26.0279 16.7504 26.2233C25.3481 27.3518 30.1868 17.3786 24.1581 11.4817C18.1974 5.65098 8.34747 10.9427 9.62586 18.9617C9.88325 20.5753 10.2818 20.8499 10.8514 22.1661C11.4261 23.4936 10.5738 24.2979 10.2497 25.7811Z"
          fill="#D8DCF0"/>
</svg>
