<svg width="70" height="70" viewBox="0 0 70 70" fill="none" xmlns="http://www.w3.org/2000/svg">
    <rect width="70" height="70" rx="7" fill="#24ADED"/>
    <path fill-rule="evenodd" clip-rule="evenodd"
          d="M44.8611 31.1767C45.5182 33.5427 51.3016 38.7267 51.9141 40.9359H47.5063C46.9206 43.3577 47.5063 44.6776 47.5063 48.1497C47.5063 50.506 47.0656 50.666 47.0656 52.8171H41.7764C41.7764 38.9093 42.8965 40.9359 36.9267 40.9359C38.5098 38.6601 42.7659 32.5267 44.8611 31.1767ZM41.3357 54.9393C45.1757 54.9393 46.0526 55.2367 49.2701 54.515V42.6338H55C54.9498 40.4504 51.6977 37.366 50.1459 35.4243C43.2646 26.8154 45.7391 27.0667 39.0654 34.9324C30.8453 44.6195 34.1644 42.2353 38.2866 42.5973C41.0534 42.84 39.7236 44.0804 39.9757 50.2772C40.0605 52.3456 39.322 54.9393 41.3357 54.9393Z"
          fill="white"/>
    <path fill-rule="evenodd" clip-rule="evenodd"
          d="M19.1712 19.1445C22.2691 14.969 37.2225 15.5951 41.8007 16.5218C43.1788 16.8007 44.4272 17.0373 45.6273 17.4594C47.1394 17.9911 47.6713 18.143 47.8284 20.0029C42.5117 21.2258 43.1579 22.5746 32.197 22.5746C28.6035 22.5746 21.0229 21.8758 19.1712 19.1445ZM17.4337 22.146C17.4337 26.4094 14.8919 30.5979 22.6647 32.4154C31.5014 34.4826 31.4475 33.352 36.4214 33.4116C37.7533 33.4268 38.6204 33.9444 39.1446 32.0075C36.8928 30.9408 36.7115 32.0075 34.3685 32.0075C29.8914 32.0075 22.4988 31.2066 19.1712 29.006V21.7173C25.6187 25.0866 41.0194 25.2754 47.8284 21.7173L48.2208 27.7614C48.6956 29.7602 47.6076 28.3322 49.1307 29.4347C49.8626 28.9323 50 29.3739 50 28.1488V19.1445C50 14.8095 37.3313 14 32.6311 14C28.3529 14 17.8206 14.4623 17.1381 19.7262C16.8062 22.2849 17.4337 20.4 17.4337 22.146Z"
          fill="white"/>
    <path fill-rule="evenodd" clip-rule="evenodd"
          d="M38.2754 51.7297C38.0754 49.35 37.1907 49.9512 34.3829 50C23.0836 50.1975 23.3045 48.393 19.1714 47.4424C19.1714 46.2477 19.2791 44.6548 19.2252 43.5295C19.1362 41.661 19.2461 41.5893 17.4339 41.4395C17.4339 48.0359 14.9525 50.5079 30.8674 51.759C37.9721 52.3179 33.3928 51.7297 38.2754 51.7297Z"
          fill="white"/>
    <path fill-rule="evenodd" clip-rule="evenodd"
          d="M17 34.5804V36.7235C17 41.9776 27.2323 42.7264 33.0655 42.7264V41.0109C28.5247 41.0109 22.5255 40.2274 19.1715 38.0094C19.1715 35.9357 19.4309 33.8642 18.7363 32.4362C17.167 32.6055 17 32.9332 17 34.5804Z"
          fill="white"/>
</svg>
