<svg width="70" height="70" viewBox="0 0 70 70" fill="none" xmlns="http://www.w3.org/2000/svg">
    <rect width="70" height="70" rx="7" fill="#24ADED"/>
    <path fill-rule="evenodd" clip-rule="evenodd"
          d="M34.3062 22.5235C33.7328 22.5235 33.1025 22.0566 32.8218 21.7902C31.2256 20.272 32.2009 15.5055 34.6746 15.8293C37.4951 16.1983 37.8578 22.5235 34.3062 22.5235ZM30.254 18.8047C30.254 26.4589 38.7268 25.9054 38.7268 19.1764C38.7268 12.3101 30.254 12.3648 30.254 18.8047Z"
          fill="white"/>
    <path fill-rule="evenodd" clip-rule="evenodd"
          d="M38.3592 38.1426V53.018C38.3592 55.7758 40.5699 55.2937 40.5699 53.7614V37.3981C40.5699 35.8667 38.3592 35.3848 38.3592 38.1426Z"
          fill="white"/>
    <path fill-rule="evenodd" clip-rule="evenodd"
          d="M44.2534 19.5479C44.2534 16.2047 48.3056 16.3873 48.3056 19.5479C48.3056 22.3357 44.2534 22.9879 44.2534 19.5479ZM42.411 19.5479C42.411 24.9917 49.7798 24.605 49.7798 21.035C49.7798 18.7545 49.8319 15.0856 46.4641 15.0856C44.0893 15.0856 42.411 17.1365 42.411 19.5479Z"
          fill="white"/>
    <path fill-rule="evenodd" clip-rule="evenodd"
          d="M49.4108 36.2832C49.4108 40.1676 48.9884 47.3584 49.78 50.7873C52.6145 50.5482 51.6215 48.2799 51.6215 40.0019V36.6549C51.6215 35.1339 51.2485 34.5476 49.78 34.4234C49.587 35.2582 49.4108 35.2789 49.4108 36.2832Z"
          fill="white"/>
    <path fill-rule="evenodd" clip-rule="evenodd"
          d="M20.6757 19.92C20.6757 15.5638 24.7279 16.585 24.7279 19.5481C24.7279 20.6974 23.6818 21.9418 22.8175 22.0538C21.762 22.1903 20.6757 20.8274 20.6757 19.92ZM18.8333 20.2917C18.8333 24.6018 26.2012 24.9162 26.2012 20.2917C26.2012 18.5231 26.466 16.9502 24.7252 15.8217C23.7956 15.2192 22.6496 15.0809 21.6837 15.3247C19.5895 15.8528 18.8333 17.8689 18.8333 20.2917Z"
          fill="white"/>
    <path fill-rule="evenodd" clip-rule="evenodd"
          d="M28.4119 37.3984V53.7617C28.4119 54.9985 29.073 54.8518 30.2544 54.8782V36.2831C29.073 36.3095 28.4119 36.1616 28.4119 37.3984Z"
          fill="white"/>
    <path fill-rule="evenodd" clip-rule="evenodd"
          d="M42.0425 31.8208V39.6302C44.5339 39.5746 43.885 39.7149 43.885 31.4491C43.885 23.1533 33.2032 24.7551 36.655 26.7627C37.551 27.2842 38.3437 26.727 39.5735 27.2475C40.9405 27.8254 42.0425 29.8932 42.0425 31.8208Z"
          fill="white"/>
    <path fill-rule="evenodd" clip-rule="evenodd"
          d="M25.0958 30.7046C25.0958 37.4155 24.3033 39.1191 26.2008 39.6302C27.3486 38.7821 26.9645 39.4984 26.9393 35.1688C26.9188 31.6204 26.17 28.6198 29.4997 27.3407C31.4951 26.5736 32.24 27.737 32.8321 25.4987C29.8213 23.7914 25.0958 27.065 25.0958 30.7046Z"
          fill="white"/>
    <path fill-rule="evenodd" clip-rule="evenodd"
          d="M48.6739 24.3823V25.8702C50.0249 26.5244 50.7326 25.9569 51.9345 27.0422C53.6678 28.6074 52.4054 33.6964 52.8371 36.0033C53.1504 37.6777 54.6944 37.5817 54.8296 35.7445C55.0674 32.518 55.3909 27.7377 53.2072 25.7564C52.0585 24.7136 50.1209 23.8581 48.6739 24.3823Z"
          fill="white"/>
    <path fill-rule="evenodd" clip-rule="evenodd"
          d="M17.3601 40.0018V49.671C17.3601 50.6998 17.6435 50.5651 18.465 50.7873C19.086 50.3515 19.2016 50.7337 19.2016 49.671V35.5394C19.2016 34.1172 19.3144 35.404 18.8333 34.4232C18.106 34.5041 17.5242 33.9987 17.4263 36.0619L17.3601 40.0018Z"
          fill="white"/>
    <path fill-rule="evenodd" clip-rule="evenodd"
          d="M14.0432 31.449C14.0432 34.556 13.8138 34.4336 14.4124 37.0266H15.8857C15.8857 27.6192 14.9915 27.1202 20.3064 25.8703V24.3824C16.5841 23.507 14.0432 26.582 14.0432 31.449Z"
          fill="white"/>
    <path fill-rule="evenodd" clip-rule="evenodd"
          d="M33.5698 42.2337V54.8782C36.1375 54.8198 35.4112 54.5213 35.4112 48.184C35.4112 41.8458 36.1804 41.6453 33.9381 41.1173C33.6854 41.5719 33.5698 41.5155 33.5698 42.2337Z"
          fill="white"/>
    <path fill-rule="evenodd" clip-rule="evenodd"
          d="M45.3584 49.671C45.3584 50.6998 45.6427 50.5651 46.4642 50.7873C47.0852 50.3515 47.2009 50.7337 47.2009 49.671C47.2009 39.3956 48.0923 38.9475 45.3584 38.8863V49.671Z"
          fill="white"/>
    <path fill-rule="evenodd" clip-rule="evenodd"
          d="M21.7806 49.671C21.7806 50.6998 22.065 50.5651 22.8855 50.7873C23.5065 50.3515 23.6222 50.7337 23.6222 49.671C23.6222 39.3956 24.5136 38.9475 21.7806 38.8863V49.671Z"
          fill="white"/>
</svg>
