<svg width="70" height="70" viewBox="0 0 70 70" fill="none" xmlns="http://www.w3.org/2000/svg">
    <rect width="70" height="70" rx="7" fill="#24ADED"/>
    <path fill-rule="evenodd" clip-rule="evenodd"
          d="M20.5141 33.9972C20.5141 38.5858 21.694 40.6765 23.7563 43.7723L19.3947 48.3506C14.0418 40.4941 11.7856 32.8746 17.2379 23.781C18.0854 22.3676 18.5307 22.1141 19.2972 20.9625L23.8538 25.3459C22.1147 27.8706 20.5141 30.0097 20.5141 33.9972ZM37.9465 21.7768C38.2522 24.5901 38.5693 21.6118 43.327 26.554C50.6581 34.1693 44.312 46.6238 34.7032 46.6238C20.4731 46.6238 18.1593 26.5437 31.3891 22.9283C32.0139 22.7572 34.5769 22.7809 35.1474 22.2232C36.2412 21.1552 35.5138 15.9078 35.5138 14.0377C39.4496 14.9594 42.4221 14.9121 46.2943 17.8698C48.7855 19.7718 49.2657 20.2551 51.1598 22.7572C56.4654 29.7694 55.9802 41.2568 49.6064 48.1567C44.3059 53.8968 39.8723 54.771 32.6757 54.771C27.8174 54.771 23.8743 51.8711 20.9193 49.8824L25.2821 45.3052C41.001 56.0988 54.7089 38.193 45.6007 25.8984C44.7614 24.7665 44.2392 24.0757 42.9895 23.2273C42.0157 22.5655 38.95 20.5459 37.9465 21.7768ZM21.3247 19.3336C22.2522 17.9409 24.5361 16.5956 26.3553 15.8338C29.2672 14.6142 30.4112 14.7584 33.4863 14.0377V20.5552C31.5224 20.5552 30.3138 20.9418 28.8773 21.6274C27.0838 22.482 26.7401 22.8974 25.3785 23.8138L22.8924 21.4242C20.5674 19.0336 22.0716 20.7625 21.3247 19.3336ZM12 33.9972C12 43.4146 17.6883 51.5494 24.9147 54.8298C41.2544 62.2461 57 49.4372 57 34.8117C57 16.3709 36.6085 5.82866 21.9628 15.9016C16.1257 19.917 12 27.0355 12 33.9972Z"
          fill="white"/>
    <path fill-rule="evenodd" clip-rule="evenodd"
          d="M28.0738 42C30.7991 41.9412 31.3825 39.7406 33.8171 36.7365L38.7365 30.6775C39.4826 29.713 41.9728 27.3097 40.9633 26.334C39.7943 25.2053 38.8121 27.1335 37.1908 29.1852C36.1015 30.5632 35.0343 31.8246 33.9356 33.2481C31.8327 35.9736 28.1305 39.5298 28.0738 42Z"
          fill="white"/>
    <path fill-rule="evenodd" clip-rule="evenodd"
          d="M28.0736 30.7912C28.0736 29.8692 28.3621 29.5906 29.3171 29.5906C30.2731 29.5906 30.5606 29.8692 30.5606 30.7912V31.9919H28.0736V30.7912ZM26 30.3909V31.9919C26 35.0134 32.6342 34.908 32.6342 31.9919C32.6342 30.2602 32.8598 29.5722 32.0213 28.5803C30.6886 27.0047 26 26.9154 26 30.3909Z"
          fill="white"/>
    <path fill-rule="evenodd" clip-rule="evenodd"
          d="M38.4393 37.1967C40.4478 37.0345 39.1351 36.8299 40.9264 37.1967C40.9264 38.5888 41.1803 39.5989 39.6829 39.5989C38.1854 39.5989 38.4393 38.5888 38.4393 37.1967ZM36.3658 37.9969C36.3658 43.1704 43 42.3396 43 38.7974C43 37.001 42.7093 34.7943 40.0974 34.7943C37.8958 34.7943 36.3658 35.8277 36.3658 37.9969Z"
          fill="white"/>
</svg>
