<svg width="70" height="70" viewBox="0 0 70 70" fill="none" xmlns="http://www.w3.org/2000/svg">
    <rect width="70" height="70" rx="7" fill="#24ADED"/>
    <path fill-rule="evenodd" clip-rule="evenodd"
          d="M16 23.9485V39.2773C16 43.8394 19.1967 45.1735 23.1506 45.1735C23.1506 50.0629 22.2007 55 25.5332 55C26.5858 55 31.4624 49.3506 33.3775 47.4327C34.3054 46.5045 34.8643 45.453 36.2858 45.2013C40.0717 44.5288 51.7492 47.4685 51.7492 40.0632C51.7492 33.1594 52.2921 33.4379 49.7628 33.3822C49.7628 39.4405 50.8063 43.2098 44.6207 43.2297C37.5655 43.2525 35.004 41.9822 32.4495 45.3356C30.7817 47.5242 27.7408 50.1285 25.5332 52.6413C25.5332 49.8569 26.3544 43.9131 24.2574 43.2923C22.3061 42.7143 17.9864 44.2275 17.9864 38.4915V24.3415C17.9864 21.8883 19.1235 20.0181 21.5613 20.0181H46.1879C48.8499 20.0181 48.8651 22.1201 49.7628 20.0181C49.7708 20.0002 50.4444 19.7406 49.1094 18.7577C48.4318 18.2583 47.9894 18.0524 46.9821 18.0524H20.7671C19.4884 18.0524 17.9814 19.0233 17.3581 19.7893C16.6544 20.6538 16 22.4981 16 23.9485Z"
          fill="white"/>
    <path fill-rule="evenodd" clip-rule="evenodd"
          d="M39.0384 37.7055C39.3591 33.8935 41.8834 32.3356 45.0963 29.1562C46.9862 27.285 50.6516 23.2362 52.5435 21.9828C53.5167 22.6274 54.2635 22.9676 54.927 23.9485C54.4464 25.7292 45.991 33.3384 44.1081 35.2544C42.6826 36.7048 41.614 37.4936 39.0384 37.7055ZM54.53 20.0181C55.3714 18.881 54.8526 19.2312 56.9124 19.2312C57.4905 21.373 58.5682 20.3234 56.9124 22.7686C56.2359 22.321 56.0108 22.1121 55.3754 21.4934C54.0263 20.1802 54.7049 20.3484 54.53 20.0181ZM36.6548 40.4572C39.8516 40.4572 43.144 38.9998 45.0983 37.0202L57.012 25.2258C58.2264 24.0271 62.3371 21.1989 58.1903 17.9619C54.92 15.4092 53.0582 18.5248 51.0536 20.5095C48.9707 22.5707 47.1793 24.3435 45.0963 26.4047C43.0133 28.4659 41.2108 30.2465 39.1228 32.2858C37.3947 33.974 37.9657 33.789 37.1977 36.277C36.878 37.3145 35.0282 40.4572 36.6548 40.4572Z"
          fill="white"/>
    <path fill-rule="evenodd" clip-rule="evenodd"
          d="M23.5475 26.3061H37.8469C38.9457 26.3061 38.8019 26.0036 39.0381 25.1272C38.5727 24.4647 38.9809 24.3414 37.8469 24.3414H23.5475C21.8495 24.3414 21.8495 26.3061 23.5475 26.3061Z"
          fill="white"/>
    <path fill-rule="evenodd" clip-rule="evenodd"
          d="M23.5475 30.6305H37.8469C38.9457 30.6305 38.8019 30.327 39.0381 29.4506C38.5727 28.7881 38.9809 28.6648 37.8469 28.6648H23.5475C21.8495 28.6648 21.8495 30.6305 23.5475 30.6305Z"
          fill="white"/>
    <path fill-rule="evenodd" clip-rule="evenodd"
          d="M22.3551 33.7751C22.9532 35.9895 23.8661 35.3468 29.5049 35.3468C30.6951 35.3468 32.2804 33.0458 28.3256 33.3293C26.2004 33.4816 23.8439 33.0678 22.3551 33.7751Z"
          fill="white"/>
</svg>
