<svg width="105" height="31" viewBox="0 0 105 31" fill="none" xmlns="http://www.w3.org/2000/svg">
    <path d="M0 28.6243C0 18.1565 0 10.4687 0 0.00101084C2.38122 -0.0363812 5.1143 0.960988 5.32182 3.42931V10.4284C6.83332 9.19311 8.6691 8.57569 10.8287 8.57569C13.8827 8.57569 16.2892 9.58905 18.0477 11.6162C19.8369 13.5797 20.7317 16.1928 20.7317 19.4551C20.7317 22.9707 19.6518 25.7738 17.4924 27.8641C15.3636 29.9546 12.4791 30.9997 8.83872 30.9997C7.23441 30.9997 5.62259 30.778 4.003 30.3347C2.38326 29.8912 1.04903 29.321 0 28.6243ZM9.5792 13.7065C7.88236 13.7065 6.46323 14.3874 5.32182 15.7495V24.8236C6.46323 25.5521 7.72815 25.9164 9.11628 25.9164C10.8748 25.9164 12.3016 25.3698 13.3969 24.2773C14.492 23.1845 15.0397 21.7039 15.0397 19.8352C15.0397 17.9032 14.5306 16.3988 13.5126 15.3218C12.4946 14.2449 11.1834 13.7065 9.5792 13.7065ZM50.9034 22.3531C50.9034 13.8609 50.9034 8.58504 50.9034 0.09283C53.1144 0.018046 56.0784 0.865709 56.2253 3.33403V8.44995C58.4618 8.44995 57.3958 8.44995 59.6323 8.44995C62.3523 8.73898 62.9352 11.8706 62.9352 13.5808H56.2253V22.0205C56.2253 24.5859 57.0581 25.8687 58.7241 25.8687C62.6333 25.8687 62.8686 27.9092 63.5368 28.8618C61.8399 30.2554 59.7884 30.9522 57.3821 30.9522C55.13 30.9522 53.4872 30.2475 52.4537 28.8381C51.4202 27.4286 50.9034 25.267 50.9034 22.3531ZM27.164 27.8641C25.0969 25.7421 24.0634 23.05 24.0634 19.7877C24.0634 16.5254 25.0969 13.849 27.164 11.7587C29.2309 9.63669 31.9766 8.57569 35.4012 8.57569C38.7946 8.57569 41.5249 9.63669 43.5919 11.7587C45.6898 13.849 46.7387 16.5254 46.7387 19.7877C46.7387 23.0182 45.6898 25.7104 43.5919 27.8641C41.4942 29.9546 38.7639 30.9997 35.4012 30.9997C31.9766 30.9997 29.2309 29.9546 27.164 27.8641ZM31.3751 15.4169C30.2954 16.5569 29.7553 18.014 29.7553 19.7877C29.7553 21.5613 30.2876 23.0262 31.352 24.1822C32.4162 25.3383 33.766 25.9164 35.4012 25.9164C37.067 25.9164 38.4321 25.3462 39.4965 24.206C40.5608 23.0657 41.0931 21.5931 41.0931 19.7877C41.0931 18.014 40.5531 16.5569 39.4734 15.4169C38.3936 14.2766 37.0362 13.7065 35.4012 13.7065C33.797 13.7065 32.4548 14.2766 31.3751 15.4169Z"
          fill="#15203D"/>
    <path d="M67.3315 22.3526C67.3315 13.8604 67.3315 8.58449 67.3315 0.0922787C69.5669 -0.0821671 72.5795 0.989698 72.6534 3.33348V8.4494C74.8899 8.4494 73.8239 8.4494 76.0604 8.4494C78.9505 8.76331 79.3633 11.87 79.3633 13.5802H72.6534V22.02C72.6534 24.5854 73.4862 25.8682 75.1522 25.8682C79.0614 25.8682 79.2726 27.9584 79.9649 28.8612C78.268 30.2548 76.2165 30.9517 73.8102 30.9517C71.5581 30.9517 69.9153 30.247 68.8818 28.8375C67.8483 27.4281 67.3315 25.2665 67.3315 22.3526ZM85.4255 27.8635C83.3584 25.7415 82.3249 23.0495 82.3249 19.7872C82.3249 16.5249 83.3584 13.8485 85.4255 11.7581C87.4924 9.63614 90.238 8.57514 93.6625 8.57514C97.0561 8.57514 99.7864 9.63614 101.853 11.7581C103.951 13.8485 105 16.5249 105 19.7872C105 23.0177 103.951 25.7099 101.853 27.8635C99.7555 29.954 97.0252 30.9992 93.6625 30.9992C90.238 30.9992 87.4924 29.954 85.4255 27.8635ZM89.6365 15.4164C88.5567 16.5564 88.0169 18.0135 88.0169 19.7872C88.0169 21.5607 88.5491 23.0256 89.6134 24.1816C90.6777 25.3378 92.0275 25.9158 93.6625 25.9158C95.3284 25.9158 96.6936 25.3456 97.7579 24.2055C98.8222 23.0651 99.3544 21.5925 99.3544 19.7872C99.3544 18.0135 98.8146 16.5564 97.7347 15.4164C96.655 14.2761 95.2975 13.706 93.6625 13.706C92.0583 13.706 90.7163 14.2761 89.6365 15.4164Z"
          fill="#24ADED"/>
</svg>
